<?xml version="1.0" encoding="iso-8859-1"?>
<!-- Generator: Adobe Illustrator 16.0.0, SVG Export Plug-In . SVG Version: 6.00 Build 0)  -->
<!DOCTYPE svg PUBLIC "-//W3C//DTD SVG 1.1//EN" "http://www.w3.org/Graphics/SVG/1.1/DTD/svg11.dtd">
<svg version="1.1" id="Capa_1" xmlns="http://www.w3.org/2000/svg" xmlns:xlink="http://www.w3.org/1999/xlink" x="0px" y="0px"
	 width="978.549px" height="978.548px" viewBox="0 0 978.549 978.548" style="enable-background:new 0 0 978.549 978.548;"
	 xml:space="preserve">
<g>
	<g>
		<path d="M120.233,705.269c37.688,37.688,81.586,67.281,130.472,87.959c50.632,21.416,104.395,32.273,159.797,32.273
			c47.91,0,94.593-8.127,139.085-24.172l-7.349,86.784l125.603-93.877l72.687,179.814l155.15-62.716l-72.686-179.814l155.557-19.774
			l-181.42-158.488c15.849-44.244,23.876-90.646,23.876-138.26c0-55.402-10.857-109.166-32.272-159.797
			c-20.679-48.887-50.271-92.784-87.96-130.472c-37.689-37.688-81.586-67.282-130.474-87.959
			C519.668,15.355,465.904,4.498,410.502,4.498S301.337,15.355,250.705,36.771c-48.886,20.677-92.783,50.271-130.472,87.959
			c-37.689,37.688-67.282,81.586-87.96,130.472C10.858,305.834,0,359.598,0,415c0,55.402,10.858,109.166,32.273,159.797
			C52.951,623.683,82.545,667.581,120.233,705.269z M731.117,677.677l79.938,197.756l-34.626,13.997l-74.798-185.041l-5.14-12.716
			l-77.276,57.759l5.935-70.072l14.983-176.94l74.851,65.388l54.059,47.227l57.782,50.478L731.117,677.677z M169.73,174.229
			c64.312-64.312,149.82-99.731,240.771-99.731c90.952,0,176.46,35.418,240.772,99.731c64.312,64.312,99.729,149.82,99.729,240.771
			c0,30.115-3.906,59.626-11.436,87.977l-153.37-133.983l-29.974,353.946c-44.969,21.317-94.481,32.562-145.724,32.562
			c-90.951,0-176.459-35.418-240.771-99.73c-64.312-64.313-99.73-149.82-99.73-240.771
			C69.999,324.049,105.418,238.541,169.73,174.229z"/>
		<path d="M410.502,229.515c49.348,0,89.494,40.146,89.494,89.494c0,49.348-40.146,89.494-89.494,89.494h-35v135.495h70v-69.364
			c71.169-15.993,124.494-79.697,124.494-155.625c0-87.945-71.549-159.494-159.494-159.494c-33.062,0-64.786,10.033-91.743,29.015
			c-26.319,18.532-46.214,44.196-57.532,74.216l65.499,24.696C339.789,252.793,373.456,229.515,410.502,229.515z"/>
		<rect x="376.947" y="582.813" width="67.109" height="67.108"/>
	</g>
</g>
<g>
</g>
<g>
</g>
<g>
</g>
<g>
</g>
<g>
</g>
<g>
</g>
<g>
</g>
<g>
</g>
<g>
</g>
<g>
</g>
<g>
</g>
<g>
</g>
<g>
</g>
<g>
</g>
<g>
</g>
</svg>
